<?xml version="1.0" encoding="UTF-8" standalone="no"?>
<!-- Created with Inkscape (http://www.inkscape.org/) -->

<svg
   version="1.1"
   id="svg1"
   width="457.59726"
   height="458.42929"
   viewBox="0 0 457.59726 458.42929"
   sodipodi:docname="sitio-web.svg"
   inkscape:version="1.3.2 (091e20e, 2023-11-25, custom)"
   xmlns:inkscape="http://www.inkscape.org/namespaces/inkscape"
   xmlns:sodipodi="http://sodipodi.sourceforge.net/DTD/sodipodi-0.dtd"
   xmlns="http://www.w3.org/2000/svg"
   xmlns:svg="http://www.w3.org/2000/svg">
  <defs
     id="defs1" />
  <sodipodi:namedview
     id="namedview1"
     pagecolor="#ffffff"
     bordercolor="#666666"
     borderopacity="1.0"
     inkscape:showpageshadow="2"
     inkscape:pageopacity="0.0"
     inkscape:pagecheckerboard="0"
     inkscape:deskcolor="#d1d1d1"
     inkscape:zoom="1.1890995"
     inkscape:cx="292.23795"
     inkscape:cy="235.05182"
     inkscape:window-width="1920"
     inkscape:window-height="1057"
     inkscape:window-x="-8"
     inkscape:window-y="-8"
     inkscape:window-maximized="1"
     inkscape:current-layer="g1" />
  <g
     inkscape:groupmode="layer"
     inkscape:label="Image"
     id="g1"
     transform="translate(-27.188923,-26.976559)">
    <path
       style="fill:#002719;fill-opacity:1"
       d="M 244,484.91315 C 158.85858,479.66655 85.387171,430.51826 49.046334,354.5 32.9669,320.86482 26.111323,287.29519 27.325435,248.13952 28.570034,208.00062 38.582827,173.41371 58.878415,139.14696 69.36519,121.44126 93.744043,90.990911 101.44493,85.979367 103.12522,84.885876 109.225,80.18991 115,75.543887 174.04967,28.038071 256.71637,14.15971 330.65369,39.339226 c 66.73602,22.727095 120.70187,77.274044 142.77142,144.308784 8.8471,26.87246 12.09606,49.69631 11.22452,78.85199 -0.95538,31.9605 -6.17002,56.042 -18.2009,84.0528 C 432.62931,425.29263 355.17144,479.97319 271,484.52776 c -5.775,0.31249 -11.625,0.68649 -13,0.8311 -1.375,0.14462 -7.675,-0.0559 -14,-0.44571 z m 21.54094,-34.0374 c 9.96976,-4.68634 20.00879,-16.84127 29.27384,-35.44381 C 299.41835,406.1888 307,387.32532 307,385.11457 c 0,-0.53503 -2.3625,-1.44805 -5.25,-2.02893 -15.38379,-3.09481 -21.55352,-3.57723 -45.75,-3.57723 -24.19648,0 -30.36621,0.48242 -45.75,3.57723 -2.8875,0.58088 -5.25,1.4939 -5.25,2.02893 0,2.21141 7.55168,21.06853 12.0988,30.21162 15.28222,30.72862 32.23358,43.16848 48.44214,35.54956 z M 189.57399,431.75 c -3.40911,-6.7375 -8.34871,-18.1 -10.97689,-25.25 -2.62818,-7.15 -4.88694,-13.11175 -5.01948,-13.24834 -0.78787,-0.81196 -27.12837,11.46385 -35.42673,16.51038 l -3.34296,2.03298 5.34603,3.91051 c 8.84576,6.47049 19.74681,12.89819 30.84604,18.18806 8.8241,4.20556 21.7852,9.5715 24.13619,9.99249 0.34991,0.0627 -2.15308,-5.39858 -5.5622,-12.13608 z m 136.40456,8.75819 c 12.00306,-4.58054 28.55779,-13.09791 39.0784,-20.10575 14.01807,-9.33751 14.08017,-8.0389 -0.74829,-15.64774 -11.92167,-6.11729 -25.33055,-12.07577 -25.88628,-11.50304 -0.13254,0.13659 -2.3913,6.09834 -5.01948,13.24834 -2.62818,7.15 -7.56778,18.5125 -10.97689,25.25 -3.40912,6.7375 -6.06321,12.25 -5.89798,12.25 0.16522,0 4.41796,-1.57132 9.45052,-3.49181 z M 120.09974,383.3222 c 10.14127,-6.12538 24.58223,-13.15694 37.47693,-18.24819 l 8.07667,-3.18894 -2.29041,-11.69253 c -3.1634,-16.14911 -6.04211,-39.37185 -7.49252,-60.44254 L 154.64859,272 H 106.81248 58.976365 l 0.602187,4.25 c 5.20364,36.72522 14.598025,62.65888 32.357283,89.32386 C 97.013662,373.19806 109.46731,389 110.39819,389 c 0.16571,0 4.53141,-2.55501 9.70155,-5.6778 z m 287.86323,-1.52132 c 8.22442,-9.77062 16.32992,-22.10831 23.19162,-35.30088 11.58292,-22.26978 17.36711,-41.55107 21.22429,-70.75 L 452.87426,272 H 405.05703 357.2398 l -0.68883,11.75 c -1.41175,24.08161 -4.98877,52.88394 -8.86242,71.36069 l -1.38593,6.61069 10.59869,4.24653 c 11.80192,4.72862 30.01131,13.94689 38.22423,19.35053 2.95595,1.94484 5.69016,3.56882 6.07601,3.60882 0.38586,0.04 3.42849,-3.16686 6.76142,-7.12638 z M 208.29694,351.02884 C 224.7102,348.14097 238.21968,347 256,347 c 17.78032,0 31.2898,1.14097 47.70306,4.02884 6.16168,1.08414 11.40243,1.97116 11.64611,1.97116 0.53008,0 3.05987,-13.575 5.15868,-27.68168 1.72038,-11.56317 4.47959,-41.42861 4.48713,-48.56832 L 325,272 h -69.14166 -69.14167 l 0.68209,12.25 c 0.93238,16.74508 3.19264,36.46454 6.13707,53.54231 1.35529,7.86078 2.46417,14.49828 2.46417,14.75 0,0.65243 -0.043,0.65772 12.29694,-1.51347 z M 155.87041,222.25 c 1.45436,-21.12806 4.33053,-44.30029 7.51935,-60.58045 l 2.31725,-11.83045 -2.60351,-0.9492 c -15.25181,-5.56063 -32.23317,-13.70635 -45.49381,-21.82276 l -6.84829,-4.19162 -2.4827,2.31224 c -3.49902,3.25879 -15.237102,19.03425 -20.141296,27.06902 C 72.509313,177.86103 64.266114,201.95087 59.567218,235.75 L 58.976365,240 h 47.836115 47.83611 z m 168.73083,5.5 c -0.93494,-16.79104 -3.19463,-36.47649 -6.16342,-53.69302 -1.36979,-7.94366 -2.64326,-14.59576 -2.82994,-14.78244 -0.18668,-0.18667 -5.46232,0.5622 -11.72365,1.66418 -31.44195,5.53369 -64.32651,5.53369 -95.76846,0 -6.26133,-1.10198 -11.53697,-1.85085 -11.72365,-1.66418 -0.18668,0.18668 -1.46015,6.83878 -2.82994,14.78244 -2.96879,17.21653 -5.22848,36.90198 -6.16342,53.69302 L 186.71667,240 H 256 325.28333 Z m 127.77416,8.5 c -3.63852,-27.35146 -8.75413,-45.01566 -19.331,-66.75 -3.21185,-6.6 -8.50972,-16.05 -11.77305,-21 -5.58091,-8.46543 -17.43192,-23.86317 -19.21437,-24.96479 -0.44497,-0.275 -4.57732,1.77093 -9.18301,4.54652 -9.70028,5.84581 -29.20981,15.42381 -39.48054,19.38255 l -7.10657,2.73915 1.39381,6.64828 c 3.88162,18.51479 7.45736,47.2964 8.8703,71.39829 L 357.2398,240 h 47.81723 47.81723 z M 290,131.07469 c 12.86545,-2.21378 17,-3.23264 17,-4.18926 0,-2.21141 -7.55168,-21.06853 -12.0988,-30.21162 C 271.37331,49.36525 245.61476,46.505751 221.271,88.5 c -6.28792,10.846984 -17.3199,37.78443 -16.01051,39.09382 0.6567,0.65671 14.83721,3.2528 23.73951,4.34611 9.70734,1.19218 52.57713,0.5841 61,-0.86524 z M 176.073,112.25 C 179.49302,101.92598 186.57639,85.447853 191.54252,76.263056 193.99978,71.718375 195.82156,68 195.59092,68 c -0.23065,0 -4.42327,1.527951 -9.31694,3.395446 -15.59766,5.95229 -33.78763,15.749721 -46.02426,24.78945 -4.98334,3.681405 -5.27375,4.109014 -3.58609,5.280214 4.49301,3.11804 33.95106,17.2144 36.50484,17.4684 0.36766,0.0366 1.6747,-2.97101 2.90453,-6.68351 z m 169.00459,4.15052 c 7.02816,-2.84466 23.46974,-10.93836 28.77839,-14.16674 l 3.34983,-2.03716 -7.35291,-5.182951 C 355.64622,84.999585 337.17871,75.322489 323.20422,70.569459 l -6.85634,-2.331993 6.14478,12.133626 c 3.37963,6.673494 8.3263,18.095064 10.9926,25.381268 2.66631,7.2862 4.9203,13.24764 5.00888,13.24764 0.0886,0 3.05113,-1.16977 6.58345,-2.59948 z"
       id="path1" />
  </g>
</svg>
